solid 
facet normal 0 0 1
 outer loop
  vertex 1 1 2.6647995
  vertex -1 1 2.6647995
  vertex -1 -1 2.6647995
 endloop
endfacet
facet normal 0 -0 1
 outer loop
  vertex 1 1 2.6647995
  vertex -1 -1 2.6647995
  vertex 1 -1 2.6647995
 endloop
endfacet
facet normal 0 -1 0
 outer loop
  vertex 1 -1 0.66479945
  vertex 1 -1 2.6647995
  vertex -1 -1 2.6647995
 endloop
endfacet
facet normal 0 -1 0
 outer loop
  vertex 1 -1 0.66479945
  vertex -1 -1 2.6647995
  vertex -1 -1 0.66479945
 endloop
endfacet
facet normal -1 -0 -0
 outer loop
  vertex -1 -1 0.66479945
  vertex -1 -1 2.6647995
  vertex -1 1 2.6647995
 endloop
endfacet
facet normal -1 -0 0
 outer loop
  vertex -1 -1 0.66479945
  vertex -1 1 2.6647995
  vertex -1 1 0.66479945
 endloop
endfacet
facet normal 0 0 -1
 outer loop
  vertex -1 1 0.66479945
  vertex 1 1 0.66479945
  vertex 1 -1 0.66479945
 endloop
endfacet
facet normal 0 0 -1
 outer loop
  vertex -1 1 0.66479945
  vertex 1 -1 0.66479945
  vertex -1 -1 0.66479945
 endloop
endfacet
facet normal 1 -0 0
 outer loop
  vertex 1 1 0.66479945
  vertex 1 1 2.6647995
  vertex 1 -1 2.6647995
 endloop
endfacet
facet normal 1 -0 0
 outer loop
  vertex 1 1 0.66479945
  vertex 1 -1 2.6647995
  vertex 1 -1 0.66479945
 endloop
endfacet
facet normal 0 1 0
 outer loop
  vertex -1 1 0.66479945
  vertex -1 1 2.6647995
  vertex 1 1 2.6647995
 endloop
endfacet
facet normal 0 1 -0
 outer loop
  vertex -1 1 0.66479945
  vertex 1 1 2.6647995
  vertex 1 1 0.66479945
 endloop
endfacet
endsolid 
